# xmcd
#
# Track frame offsets: 
#        150
#        13785
#        29653
#        46865
#        67008
#        91294
#        107773
#        128565
#        141340
#        161085
#        179040
#        201860
#        213012
#        236969
#
# Disc length: 3487 seconds
#
# Revision: 1
# Processed by: cddbd v1.5.2PL0 Copyright (c) Steve Scherf et al.
# Submitted via: ExactAudioCopy v1.0b2
#
DISCID=ce0d9d0e
DTITLE=Blackie and the Rodeo Kings - Kings and Queens
DYEAR=2011
DGENRE=Country
TTITLE0=If I Can't Have You (with Lucinda Williams)
TTITLE1=Another Free Woman Gets to Walk Away (with Sara Watkins)
TTITLE2=Got You Covered (with Rosanne Cash)
TTITLE3=I'm Still Lovin' You (with Amy Helm)
TTITLE4=Golden Sorrows (with Cassandra Wilson)
TTITLE5=Shelter Me (with Patti Scialfa)
TTITLE6=My Town Has Moved Away (with Pam Tillis)
TTITLE7=How Come You Treat Me So Bad? (with Janiva Magness)
TTITLE8=Step Away (with Emmylou Harris)
TTITLE9=Heart a Mine (with Mary Margaret O'Hara)
TTITLE10=Brave (with Holly Cole)
TTITLE11=Made of Love (with Exene Cervenka)
TTITLE12=Love Lay Me Down (with Sam Phillips)
TTITLE13=Black Sheep (with Serena Ryder)
EXTD=
EXTT0=
EXTT1=
EXTT2=
EXTT3=
EXTT4=
EXTT5=
EXTT6=
EXTT7=
EXTT8=
EXTT9=
EXTT10=
EXTT11=
EXTT12=
EXTT13=
PLAYORDER=
